# xmcd
#
# Track frame offsets:
# 150
# 2377
# 14767
# 44192
# 57358
# 78790
# 94280
# 108917
# 126500
# 141655
# 153490
#
# Disc length: 2422 seconds
#
# Revision: 1
# Processed by: cddbd v1.5.1PL0 Copyright (c) Steve Scherf et al.
# Submitted via: Easy CD Ripper 1.45
#
DISCID=9809740b
DTITLE=Dan Fogelberg - High Country Snows
DYEAR=1985
DGENRE=Country
TTITLE0=Down The Road
TTITLE1=Dan Fogelberg - Mountain Pass
TTITLE2=Dan Fogelberg - Sutter's Mill
TTITLE3=Dan Fogelberg - Wolf Creek
TTITLE4=Dan Fogelberg - High Country Snows
TTITLE5=Dan Fogelberg - The Outlaw
TTITLE6=Dan Fogelberg - Shallow Rivers
TTITLE7=Dan Fogelberg - Go Down Easy
TTITLE8=Dan Fogelberg - Wandering Shepherd
TTITLE9=Dan Fogelberg - Think Of What You've Done
TTITLE10=Dan Fogelberg - The Higher You Climb
EXTD=
EXTT0=
EXTT1=
EXTT2=
EXTT3=
EXTT4=
EXTT5=
EXTT6=
EXTT7=
EXTT8=
EXTT9=
EXTT10=
PLAYORDER=
